<svg xmlns="http://www.w3.org/2000/svg" width="184.939" height="69.919" viewBox="0 0 184.939 69.919">
  <g id="Grupo_458" data-name="Grupo 458" transform="translate(-200.996 -347.316)">
    <g id="Grupo_456" data-name="Grupo 456">
      <path id="Caminho_184" data-name="Caminho 184" d="M222.333,413.08l9.5-3.875c2.192-.88,3.228-1.092,4.54-.548l10.705,4.428c1.906.789,3.914.853,3.914,3.685L237.9,414.2c-3.428-.532-2.335-.649-5.761-.112l-13.6,2.686c0-2.655,2.108-2.986,3.8-3.7" fill="#f28824" fill-rule="evenodd"/>
      <path id="Caminho_185" data-name="Caminho 185" d="M215.085,400.269h32.892l5.237-4.142c1.361-.948,1.629-1.726.594-1.726H225.215a8.141,8.141,0,0,0-4.892,1.726Z" fill="#c15c29" fill-rule="evenodd"/>
      <path id="Caminho_186" data-name="Caminho 186" d="M215.564,364.965c-1.634-5.775,2.768-11.346,2.817-11.437-2.1,2.254-7.3,7.035-9.025,8.9-1.621,1.75-.86,2.587-.055,7,.493,2.7,1.451,7.75,2.429,10.053,2.415,5.681,4.341,6.21,12.868,3.379,2.409-.8,25.99-9.677,28.058-10.084-15.751,3.11-27.076,4.751-29.108,5.036-2.513.352-3.7.228-4.489-1.678" fill="#c15c29" fill-rule="evenodd"/>
      <path id="Caminho_187" data-name="Caminho 187" d="M251.788,372.845c-6.154,2.055-25.826,8.406-28.279,9.066-5.924,1.972-6.562,2.094-8.253,1.138-.968-.548-1.342-1.619-2.01-3.656-1.8-5.478-1.613-5.656-3.131-10.146-1.391-4.115-1.751-5.243-.119-7.01,1.734-1.876,6.366-6.546,8.481-8.824a1.978,1.978,0,0,0,0-2.613c-1.333-1.439.093.161-1.951-2.136-1.347-1.513-2.576-1.966-4.511-.239-12.44,11.092-12.049,9.581-9.785,17.094l5.653,17.681c2.287,6.937,2.975,7.393,9.323,6.363l31.74-5.931c1.9-.357,3.729.327,4.17,2.311.2.9-2.235,8.851-2.322,9.4-.968,3.421-3.724,4.661-6.549,4.661-10.911,0-16.244-.044-28.375-.044-1.617,0-1.259,2.721-.843,3.519,1.269,2.426,2.513,2.777,4.518,2.753.944-.011,30.251-.1,30.251-.1,2.673-.251,6.594-1.138,8-8.2.7-3.538,4.146-14.326,4.452-16.594.938-6.929-7.269-9.561-10.462-8.494" fill="#f28824" fill-rule="evenodd"/>
    </g>
    <g id="Grupo_457" data-name="Grupo 457">
      <text id="iSalon" transform="translate(267.934 406.235)" fill="#662967" font-size="44.671" font-family="SegoeUI, Segoe UI" letter-spacing="-0.01em"><tspan x="0" y="0">iSalon</tspan></text>
    </g>
  </g>
</svg>
